<mxfile host="Electron" agent="Mozilla/5.0 (Windows NT 10.0; Win64; x64) AppleWebKit/537.36 (KHTML, like Gecko) draw.io/24.7.17 Chrome/128.0.6613.36 Electron/32.0.1 Safari/537.36" version="24.7.17">
  <diagram name="第 1 页" id="U0guJCAL5deDx1kN0Uxq">
    <mxGraphModel dx="1050" dy="621" grid="1" gridSize="10" guides="1" tooltips="1" connect="1" arrows="1" fold="1" page="1" pageScale="1" pageWidth="827" pageHeight="1169" math="0" shadow="0">
      <root>
        <mxCell id="0" />
        <mxCell id="1" parent="0" />
        <mxCell id="A7xP-OeTYEXta6_sliQD-1" value="&lt;div&gt;&amp;nbsp; &amp;nbsp; {&lt;/div&gt;&lt;div&gt;&lt;span style=&quot;white-space: normal;&quot;&gt;&amp;nbsp; &amp;nbsp; &amp;nbsp; &amp;nbsp; &quot;type&quot;: &quot;AT&quot;,&lt;/span&gt;&lt;/div&gt;&lt;div&gt;&lt;span style=&quot;white-space: normal;&quot;&gt;&amp;nbsp; &amp;nbsp; &amp;nbsp; &amp;nbsp; &quot;alg&quot;: &quot;HS256&quot;&lt;/span&gt;&lt;/div&gt;&lt;div&gt;&amp;nbsp; &amp;nbsp; }&lt;/div&gt;" style="rounded=0;whiteSpace=wrap;html=1;align=left;" parent="1" vertex="1">
          <mxGeometry x="50" y="230" width="150" height="90" as="geometry" />
        </mxCell>
        <mxCell id="A7xP-OeTYEXta6_sliQD-2" value="&lt;div&gt;&amp;nbsp; &amp;nbsp; {&lt;/div&gt;&lt;div&gt;&lt;span style=&quot;background-color: initial;&quot;&gt;&amp;nbsp; &amp;nbsp; &amp;nbsp; &amp;nbsp; &quot;uuid&quot;: 56978315,&lt;/span&gt;&lt;/div&gt;&lt;div&gt;&lt;span style=&quot;white-space: normal;&quot;&gt;&amp;nbsp; &amp;nbsp; &amp;nbsp; &amp;nbsp; &quot;role&quot;: [&quot;USER&quot;, &quot;ADMIN&quot;],&lt;/span&gt;&lt;/div&gt;&lt;div&gt;&lt;span style=&quot;white-space: normal;&quot;&gt;&amp;nbsp; &amp;nbsp; &amp;nbsp; &amp;nbsp; &quot;exp&quot;: 1745139600,&lt;/span&gt;&lt;/div&gt;&lt;div&gt;&lt;span style=&quot;background-color: initial;&quot;&gt;&amp;nbsp; &amp;nbsp; &amp;nbsp; &amp;nbsp; ...&lt;/span&gt;&lt;/div&gt;&lt;div&gt;&amp;nbsp; &amp;nbsp; }&lt;/div&gt;" style="rounded=0;whiteSpace=wrap;html=1;align=left;" parent="1" vertex="1">
          <mxGeometry x="240" y="230" width="170" height="90" as="geometry" />
        </mxCell>
        <mxCell id="A7xP-OeTYEXta6_sliQD-4" value="" style="ellipse;whiteSpace=wrap;html=1;aspect=fixed;fillColor=#030303;" parent="1" vertex="1">
          <mxGeometry x="210" y="300" width="20" height="20" as="geometry" />
        </mxCell>
        <mxCell id="A7xP-OeTYEXta6_sliQD-6" value="" style="ellipse;whiteSpace=wrap;html=1;aspect=fixed;fillColor=#030303;" parent="1" vertex="1">
          <mxGeometry x="420" y="300" width="20" height="20" as="geometry" />
        </mxCell>
        <mxCell id="A7xP-OeTYEXta6_sliQD-9" value="HEADER.PAYLOAD&lt;div&gt;+&lt;/div&gt;&lt;div&gt;AFFDD05979E84134&lt;br&gt;&lt;/div&gt;" style="rounded=0;whiteSpace=wrap;html=1;align=center;" parent="1" vertex="1">
          <mxGeometry x="450" y="230" width="140" height="90" as="geometry" />
        </mxCell>
        <mxCell id="Fsa04r2e4rQ2PQuGjDmZ-3" value="&lt;span style=&quot;font-size:12.0pt;font-family:&lt;br/&gt;宋体;mso-bidi-font-family:&amp;quot;Times New Roman&amp;quot;;mso-font-kerning:1.0pt;mso-ansi-language:&lt;br/&gt;EN-US;mso-fareast-language:ZH-CN;mso-bidi-language:AR-SA&quot; lang=&quot;EN-US&quot;&gt;SIGNATURE&lt;/span&gt;" style="text;html=1;align=center;verticalAlign=middle;whiteSpace=wrap;rounded=0;" vertex="1" parent="1">
          <mxGeometry x="490" y="200" width="60" height="30" as="geometry" />
        </mxCell>
        <mxCell id="Fsa04r2e4rQ2PQuGjDmZ-4" value="&lt;span style=&quot;font-size:12.0pt;font-family:&lt;br/&gt;宋体;mso-bidi-font-family:&amp;quot;Times New Roman&amp;quot;;mso-font-kerning:1.0pt;mso-ansi-language:&lt;br/&gt;EN-US;mso-fareast-language:ZH-CN;mso-bidi-language:AR-SA&quot; lang=&quot;EN-US&quot;&gt;PAYLOAD&lt;/span&gt;" style="text;html=1;align=center;verticalAlign=middle;whiteSpace=wrap;rounded=0;" vertex="1" parent="1">
          <mxGeometry x="295" y="200" width="60" height="30" as="geometry" />
        </mxCell>
        <mxCell id="Fsa04r2e4rQ2PQuGjDmZ-5" value="&lt;span style=&quot;font-size: 16px;&quot;&gt;HEADER&lt;/span&gt;" style="text;html=1;align=center;verticalAlign=middle;whiteSpace=wrap;rounded=0;" vertex="1" parent="1">
          <mxGeometry x="95" y="200" width="60" height="30" as="geometry" />
        </mxCell>
      </root>
    </mxGraphModel>
  </diagram>
</mxfile>
